<svg width="43" height="42" viewBox="0 0 43 42" fill="none" xmlns="http://www.w3.org/2000/svg">
<circle cx="21.2873" cy="20.8654" r="20.8654" fill="white"/>
<path fill-rule="evenodd" clip-rule="evenodd" d="M21.2875 10.0156C18.3413 10.0156 17.9716 10.0281 16.814 10.0807C15.6589 10.1333 14.8701 10.3169 14.1799 10.5848C13.4561 10.8575 12.8004 11.2847 12.2586 11.8368C11.7065 12.3788 11.2792 13.0347 11.0067 13.7589C10.7388 14.4483 10.556 15.237 10.5026 16.3921C10.45 17.5497 10.4375 17.9194 10.4375 20.8656C10.4375 23.8118 10.45 24.1816 10.5026 25.3392C10.5552 26.4943 10.7388 27.283 11.0067 27.9724C11.2846 28.686 11.6552 29.2911 12.2586 29.8945C12.8004 30.4466 13.4561 30.8738 14.1799 31.1464C14.8701 31.4135 15.6589 31.5971 16.814 31.6505C17.9716 31.7031 18.3413 31.7156 21.2875 31.7156C24.2337 31.7156 24.6034 31.7031 25.761 31.6505C26.9161 31.5979 27.7049 31.4143 28.3943 31.1464C29.1184 30.8739 29.7744 30.4467 30.3164 29.8945C30.8685 29.3525 31.2958 28.6965 31.5683 27.9724C31.8354 27.283 32.019 26.4943 32.0724 25.3392C32.125 24.1816 32.1375 23.8118 32.1375 20.8656C32.1375 17.9194 32.125 17.5497 32.0724 16.3921C32.0198 15.237 31.8362 14.4483 31.5675 13.7589C31.2952 13.0348 30.8682 12.3788 30.3164 11.8368C29.7744 11.2846 29.1184 10.8573 28.3943 10.5848C27.7049 10.3178 26.9161 10.1341 25.761 10.0807C24.6034 10.0281 24.2337 10.0156 21.2875 10.0156ZM21.2875 11.9703C24.1845 11.9703 24.5275 11.982 25.6717 12.0337C26.7292 12.0821 27.3042 12.2591 27.6865 12.4076C28.1931 12.6046 28.5545 12.8391 28.9342 13.2189C29.314 13.5986 29.5485 13.96 29.7455 14.4666C29.8941 14.8489 30.071 15.4231 30.1194 16.4814C30.1711 17.6248 30.1828 17.9687 30.1828 20.8656C30.1828 23.7626 30.1711 24.1056 30.1194 25.2499C30.071 26.3082 29.8941 26.8824 29.7455 27.2646C29.5717 27.7359 29.2945 28.1623 28.9342 28.5124C28.5842 28.8726 28.1578 29.1498 27.6865 29.3236C27.3042 29.4722 26.7292 29.6491 25.6717 29.6975C24.5283 29.7493 24.1845 29.761 21.2875 29.761C18.3906 29.761 18.0467 29.7493 16.9033 29.6975C15.845 29.6491 15.2708 29.4722 14.8885 29.3236C14.4172 29.1498 13.9908 28.8726 13.6408 28.5124C13.2806 28.1622 13.0034 27.7359 12.8295 27.2646C12.6809 26.8824 12.504 26.3082 12.4556 25.2499C12.4039 24.1064 12.3922 23.7626 12.3922 20.8656C12.3922 17.9687 12.4039 17.6256 12.4556 16.4814C12.504 15.4231 12.6809 14.8489 12.8295 14.4666C13.0265 13.96 13.261 13.5986 13.6408 13.2189C13.9908 12.8586 14.4172 12.5814 14.8885 12.4076C15.2708 12.2591 15.845 12.0821 16.9033 12.0337C18.0467 11.982 18.3906 11.9703 21.2875 11.9703Z" fill="#FA8832"/>
<path fill-rule="evenodd" clip-rule="evenodd" d="M21.2876 15.0234C19.7381 15.0234 18.2521 15.6389 17.1565 16.7346C16.0608 17.8302 15.4453 19.3162 15.4453 20.8657C15.4453 22.4152 16.0608 23.9012 17.1565 24.9969C18.2521 26.0925 19.7381 26.708 21.2876 26.708C22.8371 26.708 24.3231 26.0925 25.4188 24.9969C26.5144 23.9012 27.1299 22.4152 27.1299 20.8657C27.1299 19.3162 26.5144 17.8302 25.4188 16.7346C24.3231 15.6389 22.8371 15.0234 21.2876 15.0234ZM21.2876 24.6215C20.2915 24.6215 19.3362 24.2258 18.6319 23.5214C17.9275 22.8171 17.5319 21.8618 17.5319 20.8657C17.5319 19.8696 17.9275 18.9143 18.6319 18.21C19.3362 17.5056 20.2915 17.1099 21.2876 17.1099C22.2837 17.1099 23.239 17.5056 23.9433 18.21C24.6477 18.9143 25.0434 19.8696 25.0434 20.8657C25.0434 21.8618 24.6477 22.8171 23.9433 23.5214C23.239 24.2258 22.2837 24.6215 21.2876 24.6215ZM28.5488 15.1069C28.5488 15.2822 28.5142 15.4559 28.4471 15.6179C28.38 15.7799 28.2816 15.9271 28.1576 16.0511C28.0336 16.1751 27.8864 16.2735 27.7244 16.3406C27.5624 16.4077 27.3888 16.4423 27.2134 16.4423C27.038 16.4423 26.8644 16.4077 26.7024 16.3406C26.5403 16.2735 26.3931 16.1751 26.2691 16.0511C26.1451 15.9271 26.0468 15.7799 25.9797 15.6179C25.9125 15.4559 25.878 15.2822 25.878 15.1069C25.878 14.7527 26.0187 14.413 26.2691 14.1626C26.5196 13.9122 26.8592 13.7715 27.2134 13.7715C27.5676 13.7715 27.9072 13.9122 28.1576 14.1626C28.4081 14.413 28.5488 14.7527 28.5488 15.1069Z" fill="#FA8832"/>
</svg>
