<svg width="43" height="42" viewBox="0 0 43 42" fill="none" xmlns="http://www.w3.org/2000/svg">
<circle cx="21.7111" cy="20.8654" r="20.8654" fill="white"/>
<path d="M18.3068 28.2738C19.7166 28.2827 21.1141 28.0115 22.4183 27.4761C23.7225 26.9407 24.9074 26.1517 25.9042 25.1548C26.9011 24.1579 27.6902 22.973 28.2256 21.6688C28.761 20.3646 29.0321 18.9671 29.0232 17.5573V17.0649C29.754 16.5295 30.3866 15.8716 30.8928 15.1203C30.2047 15.4212 29.4765 15.6208 28.7311 15.7128C29.5214 15.2419 30.1144 14.5007 30.4004 13.6263C29.6638 14.0682 28.8562 14.3788 28.0134 14.5444C27.4458 13.9396 26.6947 13.5387 25.8763 13.4038C25.0579 13.2688 24.2179 13.4074 23.4862 13.7979C22.7545 14.1885 22.1719 14.8093 21.8285 15.5643C21.4852 16.3194 21.4002 17.1665 21.5868 17.9746C20.0895 17.9011 18.6245 17.5131 17.2872 16.8358C15.9498 16.1585 14.7701 15.2071 13.8249 14.0436C13.3483 14.8709 13.2038 15.8483 13.4207 16.7781C13.6377 17.7078 14.1998 18.5204 14.9934 19.0513C14.408 19.0287 13.8361 18.8686 13.3241 18.5839V18.6256C13.3189 19.4902 13.6102 20.3304 14.1493 21.0062C14.6885 21.682 15.443 22.1527 16.287 22.3397C15.7425 22.4861 15.1722 22.5089 14.6178 22.4064C14.8622 23.1437 15.3286 23.7874 15.9532 24.2491C16.5778 24.7108 17.3299 24.968 18.1065 24.9854C16.7788 26.0542 15.1286 26.6424 13.4243 26.6546C13.1255 26.646 12.8273 26.6209 12.5312 26.5795C14.2564 27.6786 16.2613 28.2581 18.3068 28.2488" fill="#FA8832"/>
</svg>
