<svg width="42" height="42" viewBox="0 0 42 42" fill="none" xmlns="http://www.w3.org/2000/svg">
<circle cx="21.1349" cy="20.8654" r="20.8654" fill="white"/>
<path d="M29.1534 16.8621C29.0583 16.5094 28.8725 16.1877 28.6145 15.9291C28.3565 15.6705 28.0353 15.484 27.6828 15.3882C26.3758 15.0293 21.1469 15.0234 21.1469 15.0234C21.1469 15.0234 15.9189 15.0176 14.611 15.3606C14.2588 15.4609 13.9382 15.6501 13.6801 15.9099C13.422 16.1698 13.235 16.4916 13.1371 16.8446C12.7924 18.1516 12.7891 20.8624 12.7891 20.8624C12.7891 20.8624 12.7857 23.5866 13.1279 24.8803C13.3199 25.5955 13.8832 26.1606 14.5993 26.3533C15.9197 26.7122 21.1344 26.7181 21.1344 26.7181C21.1344 26.7181 26.3632 26.7239 27.6703 26.3817C28.0229 26.286 28.3444 26.0999 28.6031 25.8419C28.8617 25.5838 29.0485 25.2627 29.145 24.9103C29.4906 23.6041 29.4931 20.8941 29.4931 20.8941C29.4931 20.8941 29.5098 18.1691 29.1534 16.8621ZM19.4743 23.3738L19.4785 18.3661L23.8243 20.8741L19.4743 23.3738Z" fill="#FA8832"/>
</svg>
